<svg xmlns="http://www.w3.org/2000/svg" x="0px" y="0px"
width="50" height="50"
viewBox="0 0 172 172"
style=" fill:#000000;"><g transform=""><g fill="none" fill-rule="nonzero" stroke="none" stroke-width="1" stroke-linecap="butt" stroke-linejoin="miter" stroke-miterlimit="10" stroke-dasharray="" stroke-dashoffset="0" font-family="none" font-weight="none" font-size="none" text-anchor="none" style="mix-blend-mode: normal"><path d="M0,172v-172h172v172z" fill="none"></path><path d="M86,148.78c-34.67244,0 -62.78,-28.10756 -62.78,-62.78v0c0,-34.67244 28.10756,-62.78 62.78,-62.78v0c34.67244,0 62.78,28.10756 62.78,62.78v0c0,34.67244 -28.10756,62.78 -62.78,62.78z" fill="#ff0000"></path><g fill="#ff0000"><path d="M86,22.704c-34.89222,0 -63.296,28.40378 -63.296,63.296c0,34.89222 28.40378,63.296 63.296,63.296c34.89222,0 63.296,-28.40378 63.296,-63.296c0,-34.89222 -28.40378,-63.296 -63.296,-63.296zM86,33.712c28.94306,0 52.288,23.34494 52.288,52.288c0,28.94306 -23.34494,52.288 -52.288,52.288c-28.94306,0 -52.288,-23.34494 -52.288,-52.288c0,-28.94306 23.34494,-52.288 52.288,-52.288z"></path></g><path d="" fill="none"></path></g></g></svg>