<svg xmlns="http://www.w3.org/2000/svg" x="0px" y="0px"
width="50" height="50"
viewBox="0 0 172 172"
style=" fill:#000000;"><g fill="none" fill-rule="nonzero" stroke="none" stroke-width="1" stroke-linecap="butt" stroke-linejoin="miter" stroke-miterlimit="10" stroke-dasharray="" stroke-dashoffset="0" font-family="none" font-weight="none" font-size="none" text-anchor="none" style="mix-blend-mode: normal"><path d="M0,172v-172h172v172z" fill="none"></path><g fill="#ffffff"><path d="M30.96,17.2c-1.00781,0 -1.96187,0.44344 -2.60687,1.20938l-6.57094,7.64594c-9.60781,11.22031 -14.90219,25.53125 -14.90219,40.29906v2.44562h65.84375c1.53188,-5.92594 6.86656,-10.32 13.27625,-10.32c6.40969,0 11.74438,4.39406 13.27625,10.32h65.84375v-2.44562c0,-14.76781 -5.29437,-29.07875 -14.90219,-40.29906l-6.5575,-7.64594c-0.65844,-0.76594 -1.6125,-1.20938 -2.62031,-1.20938zM6.88,75.68v75.68c0,1.89469 1.53188,3.44 3.44,3.44h151.36c1.90813,0 3.44,-1.54531 3.44,-3.44v-75.68h-65.36v17.28063c0,7.60562 -6.15437,13.76 -13.76,13.76c-7.60562,0 -13.76,-6.15438 -13.76,-13.76v-17.28063zM82.56,86v6.88c0,1.89469 1.54531,3.44 3.44,3.44c1.89469,0 3.44,-1.54531 3.44,-3.44v-6.88zM13.76,131.02906c8.62688,1.45125 15.42625,8.26406 16.8775,16.89094h-16.8775zM158.24,131.02906v16.89094h-16.8775c1.45125,-8.62687 8.25063,-15.42625 16.8775,-16.89094z"></path></g></g></svg>