<svg xmlns="http://www.w3.org/2000/svg" x="0px" y="0px"
width="58" height="58"
viewBox="0 0 172 172"
style=" fill:#000000;"><g transform=""><g fill="none" fill-rule="nonzero" stroke="none" stroke-width="1" stroke-linecap="butt" stroke-linejoin="miter" stroke-miterlimit="10" stroke-dasharray="" stroke-dashoffset="0" font-family="none" font-weight="none" font-size="none" text-anchor="none" style="mix-blend-mode: normal"><path d="M0,172v-172h172v172z" fill="none"></path><g><path d="M172,53.67216v64.65569c0,4.66698 -3.78103,8.44802 -8.44802,8.44802h-155.10397c-4.66698,0 -8.44802,-3.78103 -8.44802,-8.44802v-64.65569c0,-4.66698 3.78103,-8.44802 8.44802,-8.44802h155.10397c4.66698,0 8.44802,3.78103 8.44802,8.44802z" fill="#e74c3c"></path><path d="M165.96369,45.57333c8.09067,2.40578 6.12305,14.4784 -2.31755,14.4784h-101.51373c-26.12584,0 -47.30482,21.17898 -47.30482,47.30482v11.06546c0,8.44097 -12.07225,10.40859 -14.4784,2.31755c-0.22723,-0.76399 -0.34919,-1.57358 -0.34919,-2.41171v-64.65569c0,-4.66587 3.78215,-8.44987 8.44802,-8.44802c164.87349,0.06413 155.28375,-0.31434 157.51567,0.34919z" fill="#e74c3c"></path><path d="M43.84888,98.49595h-12.40328v-28.06491c0,-1.63771 -1.32781,-2.96552 -2.96552,-2.96552c-1.63771,0 -2.96552,1.32781 -2.96552,2.96552v31.03043c0,1.63771 1.32781,2.96552 2.96552,2.96552h15.36879c1.63771,0 2.96552,-1.32781 2.96552,-2.96552c0,-1.63771 -1.32781,-2.96552 -2.96552,-2.96552z" fill="#ffffff"></path><path d="M63.73267,67.75466c-1.63771,0 -2.96552,1.32781 -2.96552,2.96552v30.74129c0,1.63771 1.32781,2.96552 2.96552,2.96552c1.63771,0 2.96552,-1.32781 2.96552,-2.96552v-30.74129c0,-1.63771 -1.32744,-2.96552 -2.96552,-2.96552z" fill="#ffffff"></path><path d="M106.16255,67.81359c-1.54689,-0.54343 -3.2376,0.27357 -3.77844,1.81934l-8.03284,22.95829l-8.03581,-22.95829c-0.54121,-1.54578 -2.23229,-2.36092 -3.77881,-1.81934c-1.54578,0.54121 -2.36018,2.23266 -1.81934,3.77844l10.83526,30.95629c0.9245,2.64116 4.67366,2.64116 5.59816,0l10.83155,-30.95629c0.54084,-1.54578 -0.27357,-3.2376 -1.81972,-3.77844z" fill="#ffffff"></path><path d="M143.51991,98.49595h-15.59491v-9.43776h6.31655c1.63771,0 2.96552,-1.32781 2.96552,-2.96552c0,-1.63771 -1.32781,-2.96552 -2.96552,-2.96552h-6.31655v-9.7306h15.59491c1.63771,0 2.96552,-1.32781 2.96552,-2.96552c0,-1.63771 -1.32781,-2.96552 -2.96552,-2.96552h-18.56043c-1.63771,0 -2.96552,1.32781 -2.96552,2.96552v31.03043c0,1.63771 1.32781,2.96552 2.96552,2.96552h18.56043c1.63771,0 2.96552,-1.32781 2.96552,-2.96552c0,-1.63771 -1.32781,-2.96552 -2.96552,-2.96552z" fill="#ffffff"></path><path d="M86,25.2069c-1.63771,0 -2.96552,-1.32781 -2.96552,-2.96552v-12.23276c0,-1.63771 1.32781,-2.96552 2.96552,-2.96552c1.63771,0 2.96552,1.32781 2.96552,2.96552v12.23276c0,1.63771 -1.32781,2.96552 -2.96552,2.96552z" fill="#e74c3c"></path><path d="M59.34741,31.22319c-0.7588,0 -1.51797,-0.28951 -2.09699,-0.86853l-6.02,-6.02c-1.15841,-1.15841 -1.15841,-3.03558 0,-4.19398c1.15803,-1.15766 3.03558,-1.15766 4.19361,0l6.02,6.02c1.87384,1.87384 0.52193,5.06251 -2.09662,5.06251z" fill="#e74c3c"></path><path d="M112.65259,31.22319c-2.61855,0 -3.97046,-3.18867 -2.09699,-5.06251l6.02,-6.02c1.15803,-1.15766 3.03558,-1.15766 4.19361,0c1.15841,1.15841 1.15841,3.03558 0,4.19398l-6.02,6.02c-0.57865,0.57902 -1.33782,0.86853 -2.09662,0.86853z" fill="#e74c3c"></path><path d="M86,164.9569c-1.63771,0 -2.96552,-1.32781 -2.96552,-2.96552v-12.23276c0,-1.63771 1.32781,-2.96552 2.96552,-2.96552c1.63771,0 2.96552,1.32781 2.96552,2.96552v12.23276c0,1.63771 -1.32781,2.96552 -2.96552,2.96552z" fill="#e74c3c"></path><path d="M53.32741,152.72784c-2.61855,0 -3.97046,-3.18867 -2.09699,-5.06251l6.02,-6.02c1.15803,-1.15766 3.03558,-1.15766 4.19361,0c1.15841,1.15841 1.15841,3.03558 0,4.19398l-6.02,6.02c-0.57865,0.57902 -1.33782,0.86853 -2.09662,0.86853z" fill="#e74c3c"></path><path d="M118.67259,152.72784c-0.7588,0 -1.51797,-0.28951 -2.09699,-0.86853l-6.02,-6.02c-1.15841,-1.15841 -1.15841,-3.03558 0,-4.19398c1.15803,-1.15766 3.03558,-1.15766 4.19361,0l6.02,6.02c1.87384,1.87347 0.52193,5.06251 -2.09662,5.06251z" fill="#e74c3c"></path></g></g></g></svg>